<svg xmlns="http://www.w3.org/2000/svg" width="562" height="104"><g fill="none"><path fill="#222229" d="M168.989 80.398c3.494 0 6.323-.748 8.237-1.248V67.835c-1.332.5-2.58.749-4.244.749-2.828 0-4.41-1.414-4.41-4.576V46.037h8.57v-10.15h-8.57v-9.07H153.68v9.07h-5.242v10.15h5.242v19.385c0 10.234 5.491 14.976 15.309 14.976Zm36.358 0c13.146 0 20.717-5.574 22.048-15.392h-13.977c-.583 2.912-2.663 5.159-7.572 5.159-5.324 0-8.652-3.328-9.068-9.069h30.617v-3.91c0-15.642-10.233-22.464-22.131-22.464-13.146 0-23.546 8.819-23.546 22.796v.666c0 14.227 9.984 22.214 23.63 22.214Zm-8.403-27.705c.749-5.242 3.827-8.154 8.32-8.154 4.826 0 7.405 2.912 7.654 8.154h-15.974Zm54.33 27.705c12.064 0 19.718-4.659 19.718-14.976 0-9.318-5.824-12.48-17.888-13.977-5.325-.666-7.322-1.498-7.322-3.578 0-1.997 1.664-3.411 4.91-3.411 3.41 0 4.991 1.414 5.574 4.326h13.478c-.998-10.4-8.486-14.06-19.22-14.06-10.066 0-18.636 4.659-18.636 14.31 0 9.069 4.909 12.48 16.557 13.978 5.99.832 8.07 1.83 8.07 3.91 0 2.163-1.664 3.578-5.325 3.578-4.243 0-5.657-1.748-6.156-4.91h-13.728c.332 9.652 7.57 14.81 19.968 14.81Zm43.097 0c3.495 0 6.323-.748 8.237-1.248V67.835c-1.331.5-2.58.749-4.243.749-2.829 0-4.41-1.414-4.41-4.576V46.037h8.57v-10.15h-8.57v-9.07h-14.893v9.07h-5.241v10.15h5.241v19.385c0 10.234 5.492 14.976 15.31 14.976Zm15.059-.998h14.893V58.766c0-6.988 4.992-9.817 14.061-9.568V35.304c-6.74-.083-11.315 2.746-14.06 9.235v-8.653H309.43V79.4Zm56.493.998c13.146 0 20.717-5.574 22.048-15.392h-13.977c-.583 2.912-2.663 5.159-7.572 5.159-5.324 0-8.652-3.328-9.068-9.069h30.617v-3.91c0-15.642-10.233-22.464-22.131-22.464-13.146 0-23.546 8.819-23.546 22.796v.666c0 14.227 9.984 22.214 23.63 22.214Zm-8.403-27.705c.749-5.242 3.827-8.154 8.32-8.154 4.826 0 7.405 2.912 7.654 8.154H357.52Zm36.858 41.267h14.892V72.994c2.164 4.326 6.906 7.404 13.479 7.404 10.233 0 18.47-7.488 18.47-22.464v-.665c0-14.893-8.237-22.547-18.387-22.547-6.573 0-11.066 3.494-13.562 7.654v-6.49h-14.892V93.96ZM417.508 69c-5.409 0-8.654-3.744-8.654-11.149v-.665c0-7.322 3.245-11.232 8.653-11.232 5.242 0 8.57 3.66 8.57 11.315v.665c0 7.156-2.995 11.066-8.57 11.066Zm51.916.333c-5.74 0-8.653-4.077-8.653-11.565v-.666c0-7.321 3.079-11.232 8.653-11.232 5.658 0 8.57 4.077 8.57 11.399v.665c0 7.239-2.996 11.399-8.57 11.399Zm-.083 11.065c13.395 0 23.795-8.486 23.795-22.63v-.666c0-13.81-10.317-22.38-23.712-22.38-13.478 0-23.878 8.819-23.878 22.796v.666c0 14.06 10.4 22.214 23.795 22.214Zm30.285-.998h14.892V58.766c0-6.988 4.992-9.817 14.061-9.568V35.304c-6.739-.083-11.315 2.746-14.06 9.235v-8.653h-14.893V79.4Zm53.747.998c3.494 0 6.323-.748 8.237-1.248V67.835c-1.332.5-2.58.749-4.244.749-2.828 0-4.41-1.414-4.41-4.576V46.037h8.57v-10.15h-8.57v-9.07h-14.892v9.07h-5.242v10.15h5.242v19.385c0 10.234 5.491 14.976 15.309 14.976Z"/><g transform="translate(.963)"><circle cx="52" cy="52" r="52" fill="#FFC729"/><circle cx="31.2" cy="33.8" r="5.2" fill="#BE6E07"/><circle cx="31.2" cy="52" r="5.2" fill="#BE6E07"/><path fill="#BE6E07" d="M36.395 73.02a5.2 5.2 0 1 1-2.074-4.38A2.6 2.6 0 0 0 36.4 72.8Zm38.428-4.42H82.6v7.8H67zM38.4 29.6h44.2v7.8H38.4zm0 18.2h36.4l-6.7 7.8H38.4z"/><path fill="#BE6E07" d="m42.091 63.315 12.527 9.554L89.688 36.4l6.512 6.382L54.754 85.8 36.4 70.462z"/></g></g></svg>